<svg width="19" height="19" viewBox="0 0 19 19" fill="none" xmlns="http://www.w3.org/2000/svg">
<g clip-path="url(#clip0_60:5649)">
<path d="M18.1309 9.44995C18.1309 4.47939 14.1014 0.449951 9.13086 0.449951C4.16029 0.449951 0.130859 4.47939 0.130859 9.44995C0.130859 13.942 3.42201 17.6654 7.72461 18.3406V12.0515H5.43945V9.44995H7.72461V7.46714C7.72461 5.21151 9.06828 3.96558 11.124 3.96558C12.1084 3.96558 13.1387 4.14136 13.1387 4.14136V6.3562H12.0038C10.8859 6.3562 10.5371 7.05001 10.5371 7.76245V9.44995H13.0332L12.6342 12.0515H10.5371V18.3406C14.8397 17.6654 18.1309 13.942 18.1309 9.44995Z" fill="black"/>
</g>
<defs>
<clipPath id="clip0_60:5649">
<rect width="18" height="18" fill="white" transform="translate(0.130859 0.449951)"/>
</clipPath>
</defs>
</svg>
