<svg width="19" height="19" viewBox="0 0 19 19" fill="none" xmlns="http://www.w3.org/2000/svg">
<g clip-path="url(#clip0_60:5658)">
<path fill-rule="evenodd" clip-rule="evenodd" d="M13.2377 5.36096C12.3084 4.47469 11.0683 3.99187 9.78515 4.01171C7.43719 4.01171 5.44307 5.59575 4.73206 7.72875V7.7288C4.35506 8.84656 4.35506 10.0569 4.73206 11.1747H4.73536C5.44967 13.3044 7.44048 14.8884 9.78846 14.8884C11.0005 14.8884 12.041 14.5784 12.8474 14.0309V14.0286C13.7966 13.4003 14.4447 12.4115 14.6465 11.2938H9.78516V7.82802H18.2742C18.3801 8.42989 18.4297 9.04499 18.4297 9.65679C18.4297 12.3942 17.4514 14.7085 15.7492 16.276L15.751 16.2774C14.2595 17.6531 12.2125 18.4501 9.78515 18.4501C6.38224 18.4501 3.27036 16.532 1.74252 13.4929V13.4929C0.466031 10.9498 0.466034 7.95367 1.74253 5.41059H1.74255L1.74252 5.41057C3.27036 2.36813 6.38224 0.450069 9.78515 0.450069C12.0207 0.423613 14.1801 1.26359 15.8072 2.79143L13.2377 5.36096Z" fill="#040415"/>
</g>
<defs>
<clipPath id="clip0_60:5658">
<rect width="18" height="18" fill="white" transform="translate(0.605469 0.449951)"/>
</clipPath>
</defs>
</svg>
