<svg width="19" height="19" viewBox="0 0 19 19" fill="none" xmlns="http://www.w3.org/2000/svg">
<g clip-path="url(#clip0_60:5642)">
<path d="M9.0918 2.07065C11.4965 2.07065 11.7813 2.0812 12.727 2.12339C13.6059 2.16206 14.0805 2.30972 14.3969 2.43276C14.8152 2.59448 15.1176 2.79136 15.4305 3.10425C15.7469 3.42065 15.9402 3.71948 16.102 4.13784C16.225 4.45425 16.3727 4.93237 16.4113 5.80776C16.4535 6.75698 16.4641 7.04175 16.4641 9.44292C16.4641 11.8476 16.4535 12.1324 16.4113 13.0781C16.3727 13.957 16.225 14.4316 16.102 14.748C15.9402 15.1664 15.7434 15.4687 15.4305 15.7816C15.1141 16.098 14.8152 16.2914 14.3969 16.4531C14.0805 16.5761 13.6023 16.7238 12.727 16.7625C11.7777 16.8046 11.493 16.8152 9.0918 16.8152C6.68711 16.8152 6.40234 16.8046 5.45664 16.7625C4.57773 16.7238 4.10313 16.5761 3.78672 16.4531C3.36836 16.2914 3.06602 16.0945 2.75313 15.7816C2.43672 15.4652 2.24336 15.1664 2.08164 14.748C1.95859 14.4316 1.81094 13.9535 1.77227 13.0781C1.73008 12.1289 1.71953 11.8441 1.71953 9.44292C1.71953 7.03823 1.73008 6.75347 1.77227 5.80776C1.81094 4.92886 1.95859 4.45425 2.08164 4.13784C2.24336 3.71948 2.44023 3.41714 2.75313 3.10425C3.06953 2.78784 3.36836 2.59448 3.78672 2.43276C4.10313 2.30972 4.58125 2.16206 5.45664 2.12339C6.40234 2.0812 6.68711 2.07065 9.0918 2.07065ZM9.0918 0.449951C6.64844 0.449951 6.34258 0.460498 5.38281 0.502686C4.42656 0.544873 3.76914 0.699561 3.19961 0.921045C2.60547 1.15308 2.10273 1.45894 1.60352 1.96167C1.10078 2.46089 0.794922 2.96362 0.562891 3.55425C0.341406 4.1273 0.186719 4.7812 0.144531 5.73745C0.102344 6.70073 0.0917969 7.00659 0.0917969 9.44995C0.0917969 11.8933 0.102344 12.1992 0.144531 13.1589C0.186719 14.1152 0.341406 14.7726 0.562891 15.3421C0.794922 15.9363 1.10078 16.439 1.60352 16.9382C2.10273 17.4375 2.60547 17.7468 3.19609 17.9753C3.76914 18.1968 4.42305 18.3515 5.3793 18.3937C6.33906 18.4359 6.64492 18.4464 9.08828 18.4464C11.5316 18.4464 11.8375 18.4359 12.7973 18.3937C13.7535 18.3515 14.4109 18.1968 14.9805 17.9753C15.5711 17.7468 16.0738 17.4375 16.573 16.9382C17.0723 16.439 17.3816 15.9363 17.6102 15.3457C17.8316 14.7726 17.9863 14.1187 18.0285 13.1625C18.0707 12.2027 18.0813 11.8968 18.0813 9.45347C18.0813 7.01011 18.0707 6.70425 18.0285 5.74448C17.9863 4.78823 17.8316 4.13081 17.6102 3.56128C17.3887 2.96362 17.0828 2.46089 16.5801 1.96167C16.0809 1.46245 15.5781 1.15308 14.9875 0.924561C14.4145 0.703076 13.7605 0.548389 12.8043 0.506201C11.841 0.460498 11.5352 0.449951 9.0918 0.449951Z" fill="black"/>
<path d="M9.0918 4.8269C6.53945 4.8269 4.46875 6.89761 4.46875 9.44995C4.46875 12.0023 6.53945 14.073 9.0918 14.073C11.6441 14.073 13.7148 12.0023 13.7148 9.44995C13.7148 6.89761 11.6441 4.8269 9.0918 4.8269ZM9.0918 12.4488C7.43594 12.4488 6.09297 11.1058 6.09297 9.44995C6.09297 7.79409 7.43594 6.45112 9.0918 6.45112C10.7477 6.45112 12.0906 7.79409 12.0906 9.44995C12.0906 11.1058 10.7477 12.4488 9.0918 12.4488Z" fill="black"/>
<path d="M14.977 4.644C14.977 5.24165 14.4918 5.72329 13.8977 5.72329C13.3 5.72329 12.8184 5.23814 12.8184 4.644C12.8184 4.04634 13.3035 3.5647 13.8977 3.5647C14.4918 3.5647 14.977 4.04985 14.977 4.644Z" fill="black"/>
</g>
<defs>
<clipPath id="clip0_60:5642">
<rect width="18" height="18" fill="white" transform="translate(0.0917969 0.449951)"/>
</clipPath>
</defs>
</svg>
