<svg width="16" height="15" viewBox="0 0 16 15" fill="none" xmlns="http://www.w3.org/2000/svg">
<path fill-rule="evenodd" clip-rule="evenodd" d="M6.28505 0.63208C4.14913 0.63208 2.43455 2.34206 2.43455 4.47164C2.43455 6.60184 4.14899 8.31195 6.28505 8.31195C8.42121 8.31195 10.1363 6.60173 10.1363 4.47164C10.1363 2.34216 8.42107 0.63208 6.28505 0.63208ZM6.28505 1.75388C7.79979 1.75388 9.0113 2.96176 9.0113 4.47164C9.0113 5.98218 7.79989 7.19015 6.28505 7.19015C4.77039 7.19015 3.55955 5.98236 3.55955 4.47164C3.55955 2.96157 4.77049 1.75388 6.28505 1.75388ZM14.1418 4.45863C14.1418 2.7875 12.7827 1.432 11.1066 1.432C10.7959 1.432 10.5441 1.68313 10.5441 1.9929C10.5441 2.30268 10.7959 2.55381 11.1066 2.55381C12.1614 2.55381 13.0168 3.407 13.0168 4.45863C13.0168 5.51072 12.1617 6.36345 11.1066 6.36345C10.7959 6.36345 10.5441 6.61458 10.5441 6.92436C10.5441 7.23413 10.7959 7.48526 11.1066 7.48526C12.783 7.48526 14.1418 6.13028 14.1418 4.45863ZM13.5661 9.2281C13.1501 9.13613 12.7172 9.07389 12.2818 9.04436C11.9719 9.02334 11.7035 9.25685 11.6824 9.56591C11.6614 9.87497 11.8955 10.1426 12.2055 10.1636C12.5847 10.1893 12.9618 10.2435 13.3348 10.3259C13.9173 10.4415 14.303 10.6337 14.4074 10.8519C14.486 11.0169 14.486 11.2102 14.4071 11.3757C14.3035 11.5932 13.9197 11.7849 13.3431 11.9032C13.0388 11.9656 12.8428 12.2622 12.9054 12.5656C12.968 12.869 13.2654 13.0644 13.5697 13.002C14.4658 12.8182 15.1214 12.4907 15.4232 11.8572C15.6473 11.3871 15.6473 10.84 15.4232 10.3698C15.1196 9.73478 14.4572 9.40484 13.5661 9.2281ZM0.591797 12.2379C0.591797 10.2751 2.65999 9.57398 6.28505 9.57398L6.52488 9.57501C10.0082 9.60524 11.979 10.3068 11.979 12.2229C11.979 14.0985 10.0902 14.822 6.75915 14.8826L6.28505 14.8868C2.65179 14.8868 0.591797 14.1982 0.591797 12.2379ZM10.854 12.2229C10.854 11.215 9.30112 10.6958 6.28505 10.6958C3.27203 10.6958 1.7168 11.223 1.7168 12.2379C1.7168 13.2463 3.2683 13.765 6.28505 13.765C9.29827 13.765 10.854 13.2378 10.854 12.2229Z" fill="#040415"/>
</svg>
