<svg width="49" height="48" viewBox="0 0 49 48" fill="none" xmlns="http://www.w3.org/2000/svg">
<path d="M36.5 40H24.5C24.1464 40 23.8073 39.8595 23.5572 39.6095C23.3072 39.3594 23.1667 39.0203 23.1667 38.6667V36C23.1667 35.6464 23.3072 35.3072 23.5572 35.0572C23.8073 34.8071 24.1464 34.6667 24.5 34.6667H36.5C36.8536 34.6667 37.1928 34.8071 37.4428 35.0572C37.6929 35.3072 37.8334 35.6464 37.8334 36V38.6667C37.8334 39.0203 37.6929 39.3594 37.4428 39.6095C37.1928 39.8595 36.8536 40 36.5 40Z" fill="#BFEFBD"/>
<path d="M36.5 8H12.5C12.1464 8 11.8073 8.14047 11.5572 8.39052C11.3072 8.64057 11.1667 8.97971 11.1667 9.33333V12C11.1667 12.3536 11.3072 12.6928 11.5572 12.9428C11.8073 13.1929 12.1464 13.3333 12.5 13.3333H36.5C36.8536 13.3333 37.1928 13.1929 37.4428 12.9428C37.6929 12.6928 37.8334 12.3536 37.8334 12V9.33333C37.8334 8.97971 37.6929 8.64057 37.4428 8.39052C37.1928 8.14047 36.8536 8 36.5 8Z" fill="#18191F"/>
<path d="M36.5 16H12.5C12.1464 16 11.8073 16.1405 11.5572 16.3905C11.3072 16.6406 11.1667 16.9797 11.1667 17.3333V30.6667C11.1667 31.0203 11.3072 31.3594 11.5572 31.6095C11.8073 31.8595 12.1464 32 12.5 32H36.5C36.8536 32 37.1928 31.8595 37.4428 31.6095C37.6929 31.3594 37.8334 31.0203 37.8334 30.6667V17.3333C37.8334 16.9797 37.6929 16.6406 37.4428 16.3905C37.1928 16.1405 36.8536 16 36.5 16Z" fill="#7CDF78"/>
</svg>
