<svg width="49" height="48" viewBox="0 0 49 48" fill="none" xmlns="http://www.w3.org/2000/svg">
<g clip-path="url(#clip0)">
<path d="M32.5 21.3333H40.5L36.5 16L32.5 21.3333ZM32.5 26.6667H40.5L36.5 32L32.5 26.6667Z" fill="#BFEFBD"/>
<path d="M9.83333 8H17.8333V40H9.83333C9.47971 40 9.14057 39.8595 8.89052 39.6095C8.64047 39.3594 8.5 39.0203 8.5 38.6667V9.33333C8.5 8.97971 8.64047 8.64057 8.89052 8.39052C9.14057 8.14047 9.47971 8 9.83333 8Z" fill="#7CDF78"/>
<path d="M20.5 8H28.5C28.8536 8 29.1928 8.14047 29.4428 8.39052C29.6929 8.64057 29.8333 8.97971 29.8333 9.33333V38.6667C29.8333 39.0203 29.6929 39.3594 29.4428 39.6095C29.1928 39.8595 28.8536 40 28.5 40H20.5V8Z" fill="#18191F"/>
</g>
<defs>
<clipPath id="clip0">
<rect width="32" height="32" fill="white" transform="translate(8.5 8)"/>
</clipPath>
</defs>
</svg>
