<svg width="49" height="48" viewBox="0 0 49 48" fill="none" xmlns="http://www.w3.org/2000/svg">
<path d="M20.5 21.3333H11.1666C10.813 21.3333 10.4739 21.1929 10.2238 20.9428C9.97379 20.6928 9.83331 20.3536 9.83331 20V10.6667C9.83331 10.3131 9.97379 9.97392 10.2238 9.72387C10.4739 9.47382 10.813 9.33334 11.1666 9.33334H20.5C20.8536 9.33334 21.1927 9.47382 21.4428 9.72387C21.6928 9.97392 21.8333 10.3131 21.8333 10.6667V20C21.8333 20.3536 21.6928 20.6928 21.4428 20.9428C21.1927 21.1929 20.8536 21.3333 20.5 21.3333Z" fill="#7CDF78"/>
<path d="M20.5 38.6667H11.1666C10.813 38.6667 10.4739 38.5262 10.2238 38.2762C9.97379 38.0261 9.83331 37.687 9.83331 37.3334V28C9.83331 27.6464 9.97379 27.3073 10.2238 27.0572C10.4739 26.8072 10.813 26.6667 11.1666 26.6667H20.5C20.8536 26.6667 21.1927 26.8072 21.4428 27.0572C21.6928 27.3073 21.8333 27.6464 21.8333 28V37.3334C21.8333 37.687 21.6928 38.0261 21.4428 38.2762C21.1927 38.5262 20.8536 38.6667 20.5 38.6667Z" fill="#7CDF78"/>
<path d="M25.8333 10.6667H39.1666V13.3334H25.8333V10.6667Z" fill="#18191F"/>
<path d="M39.1666 28H25.8333V30.6667H39.1666V28Z" fill="#18191F"/>
<path d="M39.1666 34.6667H25.8333V37.3334H39.1666V34.6667Z" fill="#BFEFBD"/>
<path d="M39.1666 17.3333H25.8333V20H39.1666V17.3333Z" fill="#BFEFBD"/>
</svg>
