<svg width="49" height="48" viewBox="0 0 49 48" fill="none" xmlns="http://www.w3.org/2000/svg">
<path d="M15.1666 9.33334H11.1666C10.813 9.33334 10.4739 9.47382 10.2238 9.72387C9.97379 9.97392 9.83331 10.3131 9.83331 10.6667V37.3333C9.83331 37.687 9.97379 38.0261 10.2238 38.2762C10.4739 38.5262 10.813 38.6667 11.1666 38.6667H15.1666V9.33334Z" fill="#BFEFBD"/>
<path d="M17.8333 38.6667H31.1666V9.33334H17.8333V38.6667ZM24.5 33.3333C24.1464 33.3333 23.8072 33.1929 23.5572 32.9428C23.3071 32.6928 23.1666 32.3536 23.1666 32C23.1666 31.6464 23.3071 31.3072 23.5572 31.0572C23.8072 30.8071 24.1464 30.6667 24.5 30.6667C24.8536 30.6667 25.1927 30.8071 25.4428 31.0572C25.6928 31.3072 25.8333 31.6464 25.8333 32C25.8333 32.3536 25.6928 32.6928 25.4428 32.9428C25.1927 33.1929 24.8536 33.3333 24.5 33.3333ZM24.5 14.6667C24.8536 14.6667 25.1927 14.8072 25.4428 15.0572C25.6928 15.3072 25.8333 15.6464 25.8333 16C25.8333 16.3536 25.6928 16.6928 25.4428 16.9428C25.1927 17.1929 24.8536 17.3333 24.5 17.3333C24.1464 17.3333 23.8072 17.1929 23.5572 16.9428C23.3071 16.6928 23.1666 16.3536 23.1666 16C23.1666 15.6464 23.3071 15.3072 23.5572 15.0572C23.8072 14.8072 24.1464 14.6667 24.5 14.6667ZM24.5 22.6667C24.8536 22.6667 25.1927 22.8072 25.4428 23.0572C25.6928 23.3072 25.8333 23.6464 25.8333 24C25.8333 24.3536 25.6928 24.6928 25.4428 24.9428C25.1927 25.1929 24.8536 25.3333 24.5 25.3333C24.1464 25.3333 23.8072 25.1929 23.5572 24.9428C23.3071 24.6928 23.1666 24.3536 23.1666 24C23.1666 23.6464 23.3071 23.3072 23.5572 23.0572C23.8072 22.8072 24.1464 22.6667 24.5 22.6667Z" fill="#7CDF78"/>
<path d="M37.8333 9.33334H33.8333V38.6667H37.8333C38.1869 38.6667 38.5261 38.5262 38.7761 38.2762C39.0262 38.0261 39.1666 37.687 39.1666 37.3333V10.6667C39.1666 10.3131 39.0262 9.97392 38.7761 9.72387C38.5261 9.47382 38.1869 9.33334 37.8333 9.33334Z" fill="#18191F"/>
</svg>
