<svg width="14" height="14" viewBox="0 0 14 14" fill="none" xmlns="http://www.w3.org/2000/svg">
<path d="M7.9101 2.26866V1.18152H8.40634C8.73258 1.18152 8.9971 0.917003 8.9971 0.590761C8.9971 0.264519 8.73263 0 8.40634 0H5.59431C5.26807 0 5.00355 0.264519 5.00355 0.590761C5.00355 0.917003 5.26807 1.18152 5.59431 1.18152H6.09055V2.26866C3.26728 2.70748 1.09961 5.15493 1.09961 8.09924C1.09961 11.3529 3.74669 14 7.00032 14C10.254 14 12.901 11.3529 12.901 8.09924C12.901 5.15493 10.7334 2.70748 7.9101 2.26866V2.26866ZM7.00032 12.8185C4.39814 12.8185 2.28113 10.7014 2.28113 8.09929C2.28113 5.49715 4.39818 3.3801 7.00032 3.3801C9.60246 3.3801 11.7195 5.49715 11.7195 8.09929C11.7195 10.7014 9.60251 12.8185 7.00032 12.8185V12.8185Z" fill="black"/>
<path d="M7.59168 7.85389V5.07074C7.59168 4.7445 7.32716 4.47998 7.00092 4.47998C6.67468 4.47998 6.41016 4.7445 6.41016 5.07074V8.19469C6.41016 8.29077 6.44844 8.38288 6.51649 8.45065L8.16916 10.0964C8.40041 10.3266 8.77438 10.3258 9.00464 10.0946C9.23485 9.86342 9.23404 9.48935 9.00289 9.25914L7.59168 7.85389V7.85389Z" fill="black"/>
</svg>
