<svg width="25" height="25" viewBox="0 0 25 25" fill="none" xmlns="http://www.w3.org/2000/svg">
<path fill-rule="evenodd" clip-rule="evenodd" d="M19.9746 12.5269H14.9746V20.5269H19.9746C20.5269 20.5269 20.9746 20.0791 20.9746 19.5269V13.5269C20.9746 12.9746 20.5269 12.5269 19.9746 12.5269ZM12.9746 10.5269V22.5269H19.9746C21.6315 22.5269 22.9746 21.1837 22.9746 19.5269V13.5269C22.9746 11.87 21.6315 10.5269 19.9746 10.5269H12.9746Z" fill="#040415"/>
<path d="M18.9746 15.5269C18.9746 14.9746 18.5269 14.5269 17.9746 14.5269C17.4223 14.5269 16.9746 14.9746 16.9746 15.5269C16.9746 16.0791 17.4223 16.5269 17.9746 16.5269C18.5269 16.5269 18.9746 16.0791 18.9746 15.5269Z" fill="#040415"/>
<path d="M18.9746 18.5269C18.9746 17.9746 18.5269 17.5269 17.9746 17.5269C17.4223 17.5269 16.9746 17.9746 16.9746 18.5269C16.9746 19.0791 17.4223 19.5269 17.9746 19.5269C18.5269 19.5269 18.9746 19.0791 18.9746 18.5269Z" fill="#040415"/>
<path fill-rule="evenodd" clip-rule="evenodd" d="M5.97461 22.5269C4.31776 22.5269 2.97461 21.1837 2.97461 19.5269V5.52685C2.97461 3.87 4.31776 2.52686 5.97461 2.52686H11.9746C13.6315 2.52686 14.9746 3.87 14.9746 5.52686V22.5269H5.97461ZM5.97461 4.52686H11.9746C12.5269 4.52686 12.9746 4.97457 12.9746 5.52686V20.5269H10.9746V19.5269C10.9746 18.9746 10.5269 18.5269 9.97461 18.5269H7.97461C7.42233 18.5269 6.97461 18.9746 6.97461 19.5269V20.5269H5.97461C5.42233 20.5269 4.97461 20.0791 4.97461 19.5269V5.52685C4.97461 4.97457 5.42232 4.52686 5.97461 4.52686Z" fill="#040415"/>
<path d="M9.97461 6.52686C10.5269 6.52686 10.9746 6.97457 10.9746 7.52686C10.9746 8.07914 10.5269 8.52686 9.97461 8.52686H7.97461C7.42232 8.52686 6.97461 8.07914 6.97461 7.52686C6.97461 6.97457 7.42232 6.52686 7.97461 6.52686H9.97461Z" fill="#040415"/>
<path d="M9.97461 10.5269C10.5269 10.5269 10.9746 10.9746 10.9746 11.5269C10.9746 12.0791 10.5269 12.5269 9.97461 12.5269H7.97461C7.42232 12.5269 6.97461 12.0791 6.97461 11.5269C6.97461 10.9746 7.42232 10.5269 7.97461 10.5269H9.97461Z" fill="#040415"/>
<path d="M10.9746 15.5269C10.9746 14.9746 10.5269 14.5269 9.97461 14.5269H7.97461C7.42232 14.5269 6.97461 14.9746 6.97461 15.5269C6.97461 16.0791 7.42232 16.5269 7.97461 16.5269H9.97461C10.5269 16.5269 10.9746 16.0791 10.9746 15.5269Z" fill="#040415"/>
</svg>
